<svg width="556" height="312" viewBox="0 0 556 312" fill="none" xmlns="http://www.w3.org/2000/svg">
<path d="M197.85 24.86L119.56 121.58L152.46 94.38L145.67 170.74L219.25 128.19L197.85 24.86Z" fill="url(#paint0_linear_74_3515)"/>
<path d="M231.4 127.1L197.85 24.86L219.25 128.19L231.4 127.1Z" fill="#1B314E"/>
<path d="M217.53 128.41L217.09 128.62L217.53 128.41Z" fill="url(#paint1_linear_74_3515)"/>
<path d="M0.349976 307.97C10.1 312.97 41.15 311.72 80.44 306.53C134.9 299.33 205.17 284.59 256.44 268.62C244.57 271.43 232.44 273.05 220.26 272.23C207.654 271.624 195.423 267.747 184.77 260.98C181.77 259.16 179.59 256.31 176.03 255.44C173.128 254.891 170.158 254.807 167.23 255.19L107.79 259.87L70.3 262.82C89.1 257.08 107.54 250.58 125.8 243.54C138.47 238.68 151.05 233.54 163.62 228.29C166.765 227.029 169.633 225.164 172.06 222.8C174.224 220.646 175.75 217.937 176.47 214.97C178.34 206.97 180.35 199.09 182.88 191.29C185.213 184.177 187.88 177.217 190.88 170.41C195.357 160.216 200.457 150.308 206.15 140.74C208.65 136.54 211.56 132.47 215.53 129.64C216.01 129.296 216.511 128.982 217.03 128.7C168.39 154.75 117.57 187.12 62.66 229.7C56.3333 234.62 49.9433 239.673 43.49 244.86C33.8566 252.542 26.7131 262.904 22.96 274.64L22.89 274.85C18.7 279.85 14.76 284.98 11.11 290.24C7.13912 295.908 3.54472 301.831 0.349976 307.97V307.97Z" fill="url(#paint2_linear_74_3515)"/>
<path d="M182.88 191.32C185.213 184.207 187.88 177.247 190.88 170.44C175.72 176.73 160.78 184.32 151.11 197.32C142.66 208.67 139.22 222.99 131.88 235.08C130.068 238.061 128.036 240.902 125.8 243.58C138.47 238.72 151.05 233.58 163.62 228.33C166.765 227.069 169.633 225.204 172.06 222.84C174.224 220.686 175.75 217.977 176.47 215.01C178.34 206.99 180.35 199.09 182.88 191.32Z" fill="url(#paint3_linear_74_3515)"/>
<path d="M0.349976 307.97C10.1 312.97 41.15 311.72 80.44 306.53C134.9 299.33 205.17 284.59 256.44 268.62C244.57 271.43 232.44 273.05 220.26 272.23C207.654 271.624 195.423 267.747 184.77 260.98C181.77 259.16 179.59 256.31 176.03 255.44C173.128 254.891 170.158 254.807 167.23 255.19L107.79 259.87C96.08 268.18 82.64 274.64 69.61 280.76C60.4886 285.082 51.1418 288.91 41.61 292.23C34.61 294.67 24.25 300.62 16.97 296.85C14.2752 295.428 12.1761 293.091 11.05 290.26C7.10042 295.923 3.5261 301.839 0.349976 307.97V307.97Z" fill="url(#paint4_linear_74_3515)"/>
<g style="mix-blend-mode:multiply">
<path d="M142.66 292.25C173.37 287.84 203.38 279.61 233.3 271.39L184.02 258.2C179.68 257.04 175.29 255.87 170.8 255.73C164.96 255.55 159.22 257.12 153.61 258.73C140.47 262.49 127.41 266.55 114.36 270.6L83.27 280.25L67.99 285C63.3 286.45 57.09 287.36 52.93 289.84C52.38 290.16 55.35 291.18 55.28 291.16C56.9801 291.604 58.707 291.938 60.45 292.16C63.74 292.75 67.04 293.25 70.34 293.68C87.6617 295.794 105.157 296.086 122.54 294.55C129.273 293.99 135.98 293.223 142.66 292.25Z" fill="#CAB0D5"/>
</g>
<path d="M49.21 290.71C66.03 287.25 81.98 283.64 97.21 279.85C124.277 273.226 150.98 265.195 177.21 255.79L178.21 250.96L70.3 262.82C69.05 264.08 67.84 265.35 66.67 266.65C59.9982 274.016 54.1441 282.083 49.21 290.71V290.71Z" fill="#851F81"/>
<g style="mix-blend-mode:multiply">
<path d="M55.91 249.45C65.76 244.17 76.08 238.89 86.06 233.78C96.04 228.67 106.37 223.39 116.22 218.11L116.35 218.04V217.89C117.762 210.203 119.629 202.606 121.94 195.14C147.54 178.76 174.94 161.54 203.77 146.89L203.47 146.31C174.59 161 147.13 178.24 121.47 194.65L121.37 194.72V194.83C119.047 202.305 117.174 209.912 115.76 217.61C105.96 222.86 95.69 228.12 85.76 233.2C75.83 238.28 65.46 243.6 55.61 248.87L55.91 249.45Z" fill="#EBD6CB"/>
</g>
<g style="mix-blend-mode:multiply">
<path d="M82.81 235.42C82.97 234.3 83.06 233.14 83.14 232.02C83.22 230.9 83.31 229.86 83.45 228.8C88.4375 225.598 93.7715 222.972 99.35 220.97L99.41 226.21H100.06L99.99 220.04L99.56 220.21C93.7298 222.271 88.1591 225.002 82.96 228.35L82.84 228.43V228.58C82.68 229.7 82.6 230.86 82.51 231.98C82.42 233.1 82.34 234.23 82.18 235.34L82.81 235.42Z" fill="#EBD6CB"/>
</g>
<g style="mix-blend-mode:multiply">
<path d="M29.44 277.53L29.82 277.31C32.15 275.93 35.03 274.53 37.82 273.17C39.1 272.55 40.35 271.94 41.5 271.36L41.71 271.25V271.01C40.85 266.48 41.84 264.24 43.47 260.54L43.75 259.92L43.15 259.65L42.88 260.28C41.22 264.03 40.2 266.28 41.02 270.89L37.57 272.59C34.93 273.87 32.2 275.2 29.92 276.52C29.45 273.97 30.3 271.34 32.52 268.52L32.01 268.12C29.53 271.28 28.68 274.22 29.38 277.12L29.44 277.53Z" fill="#EBD6CB"/>
</g>
<path d="M22.86 274.86C34.51 267.32 42.21 261.78 56.04 254.19C55.93 244.66 58.19 238.13 62.63 229.71C56.3033 234.63 49.9133 239.687 43.46 244.88C33.8282 252.559 26.6848 262.918 22.93 274.65L22.86 274.86Z" fill="#23334E"/>
<path style="mix-blend-mode:screen" d="M24.95 272.71C28.5674 269.84 32.4326 267.296 36.5 265.11C37.835 258.314 40.3388 251.8 43.9 245.86C34.37 253.2 28.21 263.63 24.95 272.71Z" fill="url(#paint5_linear_74_3515)"/>
<g style="mix-blend-mode:multiply">
<path d="M134.9 241.38C153.67 222.38 161.72 193.38 156.34 167.18L203.1 138.81C206.44 136.81 210.54 135.52 213.64 133.14C196.43 160.14 185.81 190.2 180.89 221.81C180.35 225.3 179.73 229.09 177.12 231.46C175.433 232.787 173.478 233.732 171.39 234.23C159.58 237.92 146.99 238.81 134.9 241.38Z" fill="#CAB0D5"/>
</g>
<g style="mix-blend-mode:multiply">
<path d="M54.21 283.11L82.12 273.26C89.28 272.26 103.19 271.71 103.33 271.71H103.4H103.46C103.63 271.63 121.18 263.03 129.46 257.93L129.11 257.38C121.11 262.31 104.41 270.53 103.25 271.1C102.17 271.1 89.03 271.69 81.99 272.67L53.99 282.54L54.21 283.11Z" fill="#EBD6CB"/>
</g>
<g style="mix-blend-mode:multiply">
<path d="M66.34 267.65L77.97 271.97C84.06 274.23 91.25 275.97 96.61 279.55C96.7684 279.663 96.9356 279.763 97.11 279.85C124.177 273.226 150.88 265.195 177.11 255.79L178.11 250.96L70.3 262.82C69.05 264.08 67.84 265.35 66.67 266.65C66.5406 266.977 66.4304 267.31 66.34 267.65V267.65Z" fill="#CAB0D5"/>
</g>
<path d="M301.51 220.72L358.5 198.45L294.43 201.13L301.51 220.72Z" fill="#1B314E"/>
<path d="M172.05 222.8C174.226 220.65 175.757 217.934 176.47 214.96C178.33 206.96 180.35 199.09 182.89 191.3C188.747 173.638 196.541 156.678 206.13 140.73C208.62 136.54 211.53 132.47 215.5 129.64C223.5 123.96 234.3 126.82 242.25 131.31C249.62 135.46 255.63 141.63 261.1 148.08C271.888 160.939 281.168 174.99 288.76 189.96C295.24 202.51 303.03 216.64 302.4 231.22C302.09 238.656 299.157 245.741 294.12 251.22C286.87 259.17 276.29 263.12 265.95 266.1C251.1 270.37 235.66 273.25 220.25 272.22C207.648 271.604 195.421 267.724 184.77 260.96C181.77 259.14 179.6 256.29 176.03 255.42C173.128 254.875 170.158 254.794 167.23 255.18L70.3 262.81C102.13 253.1 132.93 241.14 163.62 228.27C166.762 227.019 169.627 225.16 172.05 222.8V222.8Z" fill="#1B314E"/>
<path d="M273.42 214.83C273.626 216.805 274.042 218.753 274.66 220.64C274.79 221.05 274.93 221.46 275.07 221.85C276.328 225.254 278.338 228.331 280.95 230.85C281.506 231.375 282.09 231.869 282.7 232.33V232.33C283.347 232.835 284.036 233.284 284.76 233.67C288.94 235.39 294.12 235.29 299.63 234.6L289.98 193.69C289.98 193.69 277.34 197.69 274.06 207.87C273.814 208.617 273.626 209.383 273.5 210.16C273.253 211.705 273.226 213.277 273.42 214.83V214.83Z" fill="#324C64"/>
<path d="M273.51 210.14C277.335 206.162 282.234 203.383 287.61 202.14L287.34 200.9C282.391 202.027 277.819 204.419 274.07 207.84C273.823 208.591 273.636 209.36 273.51 210.14Z" fill="#2A3F58"/>
<path d="M274.66 220.64C274.79 221.05 274.93 221.46 275.07 221.85C279.169 220.638 283.159 219.086 287 217.21L286.44 216.07C282.642 217.907 278.703 219.435 274.66 220.64V220.64Z" fill="#2A3F58"/>
<path d="M280.95 230.82C281.506 231.345 282.09 231.839 282.7 232.3C286.984 232.645 291.291 232.034 295.31 230.51L294.86 229.31C290.43 230.999 285.639 231.519 280.95 230.82V230.82Z" fill="#2A3F58"/>
<path d="M301.21 195.42C297.83 192.42 293.67 191.23 288.97 194.25C283.86 197.53 282.77 204.71 282.89 210.25C283.08 219.33 293.51 241.2 305.56 232.54C310.87 228.72 311.12 220.94 310.48 214.96C309.94 209.66 306.55 200.2 301.21 195.42Z" fill="#2A3F58"/>
<path d="M284.26 210.57C284.35 215.4 287.64 224.22 292.53 229.1C295.98 232.55 300.23 234.03 304.72 230.78C306.37 229.558 307.614 227.868 308.29 225.93C308.557 225.225 308.764 224.499 308.91 223.76C309.473 220.82 309.561 217.808 309.17 214.84C309.029 213.603 308.789 212.378 308.45 211.18C308.28 210.51 308.08 209.8 307.83 209.08C306.43 204.78 304.01 200 300.83 197.08V197.03C300.241 196.494 299.598 196.022 298.91 195.62C296.25 194.05 293.2 193.84 289.82 196.02C288.555 196.85 287.501 197.963 286.74 199.27C284.67 202.57 284.21 206.95 284.26 210.57Z" fill="#3E7A86"/>
<path d="M290.53 201.32L291.89 203.02C294.665 200.787 297.63 198.799 300.75 197.08C300.161 196.544 299.518 196.072 298.83 195.67C295.922 197.336 293.147 199.225 290.53 201.32V201.32Z" fill="#4B99A3"/>
<path d="M295.54 213.39L296.54 215.31C300.26 213.315 304.274 211.921 308.43 211.18C308.26 210.51 308.06 209.8 307.81 209.08C303.525 209.885 299.387 211.338 295.54 213.39Z" fill="#4B99A3"/>
<path d="M294.73 224.05C299.141 225.303 303.705 225.935 308.29 225.93C308.557 225.225 308.764 224.499 308.91 223.76C304.314 223.825 299.733 223.222 295.31 221.97L294.73 224.05Z" fill="#4B99A3"/>
<path d="M284.26 210.57C284.34 214.94 287.05 222.57 291.2 227.62C291.63 228.14 292.07 228.62 292.53 229.1C293.611 228.384 294.564 227.491 295.35 226.46C295.982 225.628 296.516 224.725 296.94 223.77C298.007 221.245 298.46 218.504 298.26 215.77C298.098 212.646 297.265 209.594 295.82 206.82C294.51 204.28 292.35 200.99 289.6 199.9C288.663 199.528 287.668 199.322 286.66 199.29C285.96 200.47 285.428 201.743 285.08 203.07C284.443 205.517 284.167 208.043 284.26 210.57V210.57Z" fill="#62C0BD"/>
<path d="M284.26 210.57C284.34 214.94 287.05 222.57 291.2 227.62C293.63 226.12 295.33 221.83 295.14 218.53C295.153 217.868 295.025 217.211 294.765 216.603C294.504 215.994 294.117 215.448 293.63 215C293.19 214.669 292.675 214.451 292.131 214.366C291.587 214.28 291.03 214.33 290.51 214.51C289.74 211.59 288.42 205.07 285.08 203.08C284.444 205.524 284.168 208.047 284.26 210.57V210.57Z" fill="#90D0D2"/>
<path d="M201.9 197.11C202 197.79 202.12 198.49 202.25 199.11C203.547 206.127 206.072 212.861 209.71 219C209.99 219.51 210.3 220 210.63 220.5C211.611 222.047 212.679 223.536 213.83 224.96V225.04C216.431 228.262 219.435 231.136 222.77 233.59C223.49 234.12 224.23 234.64 224.97 235.11C229.426 238.041 234.376 240.141 239.58 241.31C239.58 241.31 239.58 241.31 239.58 241.31C240.22 241.46 240.85 241.59 241.51 241.71C241.92 241.78 242.33 241.85 242.74 241.9C243.39 241.99 244.08 242.05 244.79 242.08C255.79 242.54 272.79 235.86 272.79 235.86L241.21 140.02C241.15 139.82 233.09 143.27 232.64 143.48C226.2 146.48 219.56 150.34 214.3 155.17C208.798 160.353 204.885 166.995 203.02 174.32C202.65 175.64 202.33 176.98 202.08 178.32C200.965 184.529 200.904 190.881 201.9 197.11Z" fill="#324C64"/>
<path d="M202.08 178.32C209.657 167.679 220.108 159.417 232.21 154.5L231.59 152.93C220.384 157.482 210.543 164.85 203.02 174.32C202.65 175.61 202.33 176.95 202.08 178.32Z" fill="#2A3F58"/>
<path d="M201.9 197.11C202 197.79 202.12 198.49 202.25 199.11C208.61 192.57 216.225 187.383 224.64 183.86L223.99 182.3C215.736 185.758 208.233 190.788 201.9 197.11V197.11Z" fill="#2A3F58"/>
<path d="M209.71 219.05C209.99 219.56 210.3 220.05 210.63 220.55C218.848 218.32 226.648 214.763 233.72 210.02L232.79 208.62C225.733 213.361 217.932 216.887 209.71 219.05Z" fill="#2A3F58"/>
<path d="M222.82 233.64C223.54 234.17 224.28 234.69 225.02 235.16C225.847 235.093 226.677 235.003 227.51 234.89C234.753 233.932 241.743 231.579 248.09 227.96L247.26 226.5C239.785 230.762 231.413 233.207 222.82 233.64V233.64Z" fill="#2A3F58"/>
<path d="M264.09 233.06C256.531 237.315 248.247 240.129 239.66 241.36C240.3 241.51 240.93 241.64 241.59 241.76C242 241.83 242.41 241.9 242.82 241.95C243.47 242.04 244.16 242.1 244.87 242.13C251.879 240.614 258.62 238.056 264.87 234.54L264.09 233.06Z" fill="#2A3F58"/>
<path d="M226.35 200.48C230.21 210.55 237.48 221.15 246.82 228.16C254.39 233.82 263.32 237.16 272.94 235.9C289.09 233.83 293.27 216.62 292.43 202.84C291.545 190.591 287.959 178.689 281.93 167.99C273.1 152.24 250.93 127.35 232.7 145.62C228.856 149.662 226.065 154.586 224.57 159.96C224.018 161.808 223.564 163.684 223.21 165.58C221.026 177.281 222.113 189.357 226.35 200.48V200.48Z" fill="#2A3F58"/>
<path d="M230.04 199.68C233.75 209.93 240.79 220.78 249.76 227.58C254.541 231.398 260.322 233.756 266.41 234.37C268.127 234.503 269.853 234.456 271.56 234.23C271.896 234.198 272.23 234.147 272.56 234.08C274.105 233.821 275.603 233.329 277 232.62V232.62C284 229.16 287.24 221.06 288.22 212.55C288.33 211.78 288.4 211.01 288.45 210.23C288.62 207.706 288.62 205.174 288.45 202.65C287.979 196.125 286.744 189.677 284.77 183.44C284.54 182.71 284.29 181.98 284.03 181.25C282.603 177.047 280.858 172.958 278.81 169.02C277.222 165.998 275.446 163.078 273.49 160.28C273.06 159.66 272.61 159.03 272.14 158.41C267.82 152.55 262.45 146.92 256.72 143.7C255.97 143.27 255.2 142.9 254.43 142.55C248.57 140.01 242.43 140.19 236.7 145.37C236.13 145.88 235.59 146.42 235.08 146.99C232.042 150.456 229.814 154.555 228.56 158.99C227.837 161.314 227.283 163.687 226.9 166.09C225.102 177.372 226.182 188.926 230.04 199.68V199.68Z" fill="#3E7A86"/>
<path d="M237.69 162.78L239.69 163.78C243.68 155.828 249.508 148.941 256.69 143.69C255.94 143.26 255.17 142.89 254.4 142.54C247.331 147.895 241.61 154.825 237.69 162.78V162.78Z" fill="#4B99A3"/>
<path d="M250.52 173.52L252.05 175.24C258.572 169.411 265.762 164.376 273.47 160.24C273.04 159.62 272.59 158.99 272.12 158.37C264.355 162.562 257.106 167.647 250.52 173.52V173.52Z" fill="#4B99A3"/>
<path d="M256.93 192.85L257.71 195C266.909 191.629 275.922 187.77 284.71 183.44C284.48 182.71 284.23 181.98 283.97 181.25C275.168 185.591 266.142 189.463 256.93 192.85V192.85Z" fill="#4B99A3"/>
<path d="M259.21 211.24C268.769 213.024 278.529 213.465 288.21 212.55C288.32 211.78 288.39 211.01 288.44 210.23C278.832 211.175 269.139 210.755 259.65 208.98L259.21 211.24Z" fill="#4B99A3"/>
<path d="M252.9 221.53C257.934 227.699 264.809 232.097 272.52 234.08C274.065 233.821 275.563 233.329 276.96 232.62C268.231 231.344 260.285 226.876 254.66 220.08L252.9 221.53Z" fill="#4B99A3"/>
<path d="M230.04 199.68C233.143 208.219 237.966 216.03 244.21 222.63C245.931 224.419 247.786 226.074 249.76 227.58C253.659 226.449 257.009 223.931 259.18 220.5C261.401 216.768 262.71 212.564 263 208.23C263.686 201.039 262.843 193.784 260.527 186.942C258.21 180.1 254.473 173.825 249.56 168.53C245.56 164.26 240.63 160.63 234.93 159.31C232.834 158.835 230.672 158.726 228.54 158.99C227.949 160.893 227.472 162.83 227.11 164.79C227.02 165.23 226.94 165.66 226.88 166.09C225.088 177.374 226.175 188.928 230.04 199.68V199.68Z" fill="#62C0BD"/>
<path d="M230.04 199.68C233.143 208.219 237.966 216.03 244.21 222.63C245.016 222.668 245.821 222.531 246.57 222.23C249.01 221.23 250.47 218.64 250.8 216.06C251.1 213.73 250.48 211.65 250.19 209.37C249.9 207.09 251.06 207.55 251.85 205.68C252.59 207.01 253.19 208.45 253.85 209.84C253.96 210.197 254.142 210.527 254.385 210.811C254.627 211.094 254.925 211.326 255.26 211.49C256.46 211.88 257.5 210.57 257.97 209.4C259.046 206.568 259.302 203.49 258.71 200.519C258.117 197.547 256.7 194.803 254.62 192.6C254 191.97 253.1 191.35 252.3 191.71C251.5 192.07 251.39 193.47 251.58 194.49C251.065 192.306 250.396 190.16 249.58 188.07C249.02 186.74 247.72 183.07 246.36 182.43C247.43 182.94 248.72 183.43 249.78 182.89C251.06 182.2 251.15 180.41 250.89 178.98C250.394 176.202 249.305 173.563 247.696 171.243C246.088 168.924 243.998 166.979 241.57 165.54C240.941 165.108 240.217 164.833 239.46 164.74C237.69 164.64 236.27 166.43 236.11 168.19C236.096 169.973 236.559 171.726 237.45 173.27C235.27 171.49 234.1 169.13 232.01 167.27C230.67 165.983 228.973 165.129 227.14 164.82C227.05 165.26 226.97 165.69 226.91 166.12C225.114 177.392 226.19 188.935 230.04 199.68V199.68Z" fill="#90D0D2"/>
<path d="M187.46 237.56C187.87 239.62 188.497 241.631 189.33 243.56C189.51 243.99 189.7 244.4 189.88 244.79C191.532 248.243 193.942 251.278 196.93 253.67C197.571 254.166 198.239 254.627 198.93 255.05C199.654 255.523 200.421 255.928 201.22 256.26C205.79 257.67 211.22 257.06 216.95 255.8L202.85 213.7C202.85 213.7 189.94 219.16 187.47 230.15C187.287 230.963 187.167 231.789 187.11 232.62C186.995 234.275 187.113 235.938 187.46 237.56V237.56Z" fill="#324C64"/>
<path d="M187.11 232.61C190.759 228.05 195.659 224.655 201.21 222.84L200.8 221.56C195.707 223.232 191.13 226.187 187.51 230.14C187.314 230.952 187.18 231.778 187.11 232.61V232.61Z" fill="#2A3F58"/>
<path d="M189.33 243.54C189.51 243.97 189.7 244.38 189.88 244.77C194.076 243.118 198.124 241.11 201.98 238.77L201.29 237.62C197.469 239.912 193.47 241.892 189.33 243.54V243.54Z" fill="#2A3F58"/>
<path d="M196.93 253.65C197.571 254.146 198.239 254.607 198.93 255.03C203.47 254.985 207.942 253.926 212.02 251.93L211.43 250.72C206.926 252.918 201.934 253.926 196.93 253.65V253.65Z" fill="#2A3F58"/>
<path d="M214.84 214.44C211 211.57 206.51 210.77 201.84 214.44C196.84 218.38 196.33 226.04 196.99 231.88C198.07 241.41 211.17 263.41 222.99 253.14C228.21 248.61 227.72 240.39 226.47 234.14C225.38 228.59 220.9 218.96 214.84 214.44Z" fill="#2A3F58"/>
<path d="M198.46 232.02C199.02 237.09 203.33 246.02 208.95 250.71C212.95 254.01 217.52 255.16 221.95 251.31C223.561 249.86 224.703 247.963 225.23 245.86C225.44 245.09 225.591 244.304 225.68 243.51C225.985 240.365 225.786 237.192 225.09 234.11C224.818 232.823 224.447 231.56 223.98 230.33C223.73 229.64 223.45 228.91 223.12 228.18C221.23 223.79 218.22 218.99 214.57 216.27L214.51 216.22C213.837 215.71 213.113 215.271 212.35 214.91C209.4 213.52 206.18 213.59 202.82 216.21C201.575 217.21 200.576 218.483 199.9 219.93C198.11 223.57 198.02 228.22 198.46 232.02Z" fill="#3E7A86"/>
<path d="M204.21 221.67L205.8 223.32C208.506 220.705 211.433 218.329 214.55 216.22C213.877 215.71 213.153 215.271 212.39 214.91C209.491 216.946 206.756 219.206 204.21 221.67V221.67Z" fill="#4B99A3"/>
<path d="M210.59 233.9L211.85 235.82C215.573 233.356 219.664 231.499 223.97 230.32C223.72 229.63 223.44 228.9 223.11 228.17C218.667 229.426 214.445 231.359 210.59 233.9V233.9Z" fill="#4B99A3"/>
<path d="M210.78 245.19C215.539 246.082 220.399 246.307 225.22 245.86C225.43 245.089 225.581 244.304 225.67 243.51C220.842 244.029 215.964 243.84 211.19 242.95L210.78 245.19Z" fill="#4B99A3"/>
<path d="M198.46 232.02C198.97 236.61 202.55 244.39 207.4 249.29C207.892 249.79 208.409 250.264 208.95 250.71C210.019 249.853 210.935 248.822 211.66 247.66C212.253 246.721 212.73 245.714 213.08 244.66C213.951 241.901 214.16 238.975 213.69 236.12C213.215 232.85 212.045 229.72 210.26 226.94C208.63 224.39 206.04 221.14 203.04 220.26C202.017 219.966 200.953 219.844 199.89 219.9C199.274 221.211 198.84 222.601 198.6 224.03C198.162 226.672 198.115 229.364 198.46 232.02V232.02Z" fill="#62C0BD"/>
<path d="M198.46 232.02C198.97 236.61 202.55 244.39 207.4 249.29C209.81 247.47 211.2 242.8 210.67 239.35C210.623 238.652 210.426 237.971 210.093 237.355C209.76 236.74 209.298 236.202 208.74 235.78C208.246 235.472 207.683 235.292 207.101 235.255C206.52 235.219 205.939 235.327 205.41 235.57C204.32 232.57 202.3 225.83 198.6 224.06C198.165 226.692 198.118 229.374 198.46 232.02V232.02Z" fill="#90D0D2"/>
<g style="mix-blend-mode:multiply">
<path d="M147.88 148.63L184.97 114V113.84C182.68 92.01 178.36 50.44 178.41 49.34H178.12L177.83 49.11C177.72 49.25 177.56 49.45 184.3 113.76L147.45 148.16L147.88 148.63Z" fill="#EBD6CB"/>
</g>
<g style="mix-blend-mode:multiply">
<path d="M168.9 146.1L203.46 118.44L206.96 134.05L207.6 133.91L203.87 117.28L169.17 145.04L164.25 133.06L163.65 133.31L168.9 146.1Z" fill="#EBD6CB"/>
</g>
<g style="mix-blend-mode:multiply">
<path d="M197.28 29.74L170.21 64.02C177.68 92.32 175.05 123.09 166.86 155.21L215.75 125.45L197.28 29.74Z" fill="#CAB0D5"/>
</g>
<path d="M11.08 290.26C14.73 285 18.67 279.89 22.86 274.87L22.93 274.66C23.14 273.98 23.37 273.3 23.61 272.66C27.5292 261.75 34.4012 252.143 43.46 244.91L47.46 241.74C52.56 237.667 57.6233 233.667 62.65 229.74C91.45 207.4 119.12 187.9 145.95 170.62L145.69 170.77L147.69 148.42L147.46 148.18L147.73 147.94L152.21 96.75L155.5 94.03L150.74 147.56L150.47 147.81L150.7 148.05L148.7 170.39L148.96 170.24C122.21 187.52 94.51 207.03 65.71 229.37C60.71 233.27 55.6466 237.253 50.52 241.32L46.52 244.49C37.4565 251.748 30.5906 261.384 26.69 272.32C26.45 272.99 26.22 273.67 26.01 274.32L25.94 274.52C21.7533 279.54 17.8266 284.673 14.16 289.92C10.2003 295.579 6.61593 301.492 3.42998 307.62C11.76 311.92 35.65 311.62 66.95 308.19C34.15 311.93 8.94998 312.41 0.349976 307.97C3.53579 301.839 7.12015 295.923 11.08 290.26V290.26Z" fill="white"/>
<path d="M181.14 48.96L180.89 48.75C180.89 48.75 180.84 48.81 180.89 49.3L128.05 114.57L119.58 121.57L177.81 49.63C177.81 49.15 177.81 49.11 177.81 49.09L178.06 49.29L197.86 24.84L198.66 27.3L181.14 48.96Z" fill="white"/>
<path d="M294.21 192.79L294.15 192.5C294.443 192.48 294.737 192.48 295.03 192.5C294.8 192.6 294.53 192.68 294.21 192.79Z" fill="white"/>
<path d="M49.21 290.71C50.75 288.217 52.3566 285.777 54.03 283.39C55.7 281 57.51 278.71 59.29 276.39C62.8138 271.747 66.6281 267.331 70.71 263.17L70.5 263.29C85.36 258.45 100.18 253.44 114.88 248.13C122.213 245.463 129.547 242.72 136.88 239.9L142.34 237.75C144.16 237.04 145.92 236.19 147.72 235.42C151.29 233.82 154.84 232.2 158.37 230.51C154.73 231.93 151.09 233.36 147.44 234.73C145.61 235.43 143.77 236.08 141.96 236.8C140.15 237.52 138.33 238.26 136.52 238.97C129.24 241.81 121.927 244.55 114.58 247.19C99.89 252.5 85.09 257.5 70.23 262.34H70.12L70.03 262.43C65.931 266.632 62.0843 271.073 58.51 275.73C56.74 278.07 55.15 280.54 53.59 283.03C52.03 285.52 50.5 288.11 49.21 290.71Z" fill="white"/>
<g style="mix-blend-mode:screen">
<path d="M239.83 142.8C268.17 134.46 295.83 136.11 321.15 140.06L542.41 0L555.41 24.23L326.95 149.37C319.08 180.51 304.31 205.14 280.95 230.82C280.95 230.82 252.84 249.82 230.46 200.82C216.5 156.44 239.83 142.8 239.83 142.8Z" fill="url(#paint6_linear_74_3515)"/>
</g>
<g style="mix-blend-mode:screen">
<path d="M203.96 213.48C217.12 209.83 229.96 210.55 241.73 212.28L274.41 199.4L244.41 216.35C240.76 229.97 233.9 240.74 223.05 251.97C223.05 251.97 210 260.28 199.6 238.84C193.13 219.44 203.96 213.48 203.96 213.48Z" fill="#42B597"/>
</g>
<g style="mix-blend-mode:screen">
<path d="M291.79 194.13C304.95 190.48 312.97 190.13 324.79 191.87L329.79 191.57L327.48 195.94C323.83 209.56 315.61 219.55 304.76 230.78C304.76 230.78 297.76 238.05 288.83 224.31C294.45 211.61 292.32 200.82 291.44 194.31L291.79 194.13Z" fill="#42B597"/>
</g>
<defs>
<linearGradient id="paint0_linear_74_3515" x1="94.7618" y1="132.801" x2="218.126" y2="75.6545" gradientUnits="userSpaceOnUse">
<stop stop-color="#7BC5B0"/>
<stop offset="0.05" stop-color="#7BC5B0"/>
<stop offset="1" stop-color="#7BC5B0"/>
</linearGradient>
<linearGradient id="paint1_linear_74_3515" x1="217.7" y1="127.706" x2="217.245" y2="127.765" gradientUnits="userSpaceOnUse">
<stop stop-color="#7BC5B0"/>
<stop offset="0.01" stop-color="#7AC3AE"/>
<stop offset="0.24" stop-color="#6AAA98"/>
<stop offset="0.48" stop-color="#5F9788"/>
<stop offset="0.72" stop-color="#588D7E"/>
<stop offset="1" stop-color="#56897B"/>
</linearGradient>
<linearGradient id="paint2_linear_74_3515" x1="248.011" y1="203.616" x2="-8.43823" y2="237.291" gradientUnits="userSpaceOnUse">
<stop stop-color="#7BC5B0"/>
<stop offset="0.05" stop-color="#7BC5B0"/>
<stop offset="1" stop-color="#7BC5B0"/>
</linearGradient>
<linearGradient id="paint3_linear_74_3515" x1="9.43028" y1="255.721" x2="210.356" y2="188.732" gradientUnits="userSpaceOnUse">
<stop stop-color="#A71680"/>
<stop offset="1" stop-color="#25456C"/>
</linearGradient>
<linearGradient id="paint4_linear_74_3515" x1="4.86508" y1="287.217" x2="150.111" y2="279.212" gradientUnits="userSpaceOnUse">
<stop stop-color="#A71680"/>
<stop offset="1" stop-color="#1B314E"/>
</linearGradient>
<linearGradient id="paint5_linear_74_3515" x1="28.7618" y1="236.515" x2="35.9984" y2="262.635" gradientUnits="userSpaceOnUse">
<stop stop-color="#3D4B4A"/>
<stop offset="0.3" stop-color="#3B4847"/>
<stop offset="0.51" stop-color="#333F3E"/>
<stop offset="0.69" stop-color="#272F2F"/>
<stop offset="0.86" stop-color="#151919"/>
<stop offset="1" stop-color="#010101"/>
</linearGradient>
<linearGradient id="paint6_linear_74_3515" x1="257" y1="195" x2="521.5" y2="28.5" gradientUnits="userSpaceOnUse">
<stop stop-color="#42B597"/>
<stop offset="0.164583" stop-color="#42B597" stop-opacity="0.507292"/>
<stop offset="1" stop-color="#42B597" stop-opacity="0"/>
</linearGradient>
</defs>
</svg>
